<svg xmlns="http://www.w3.org/2000/svg" viewBox="0 0 18 18">
  <path fill="black" d="M 5.52 9.30 C 5.60 6.68, 7.57 5.04, 8.81 4.96 C 11.22 4.88, 12.49 6.62, 12.59 9.16 C 11.08 8.96, 7.68 9.02, 5.52 9.30 Z"/>
  <path fill="black" d="M 7.93 4.80 C 7.93 4.42, 8.31 4.16, 8.91 4.16 C 9.53 4.16, 9.89 4.42, 9.89 4.80 V 5.08 H 7.93 Z"/>
  <path fill="black" d="M 8.06 8.98 C 9.26 8.66, 12.48 8.68, 13.56 8.94 C 13.98 9.04, 13.94 9.68, 13.48 9.78 H 8.06 C 7.68 9.78, 7.68 9.12, 8.06 8.98 Z"/>
  <rect fill="black" x="6.26" y="10.92" width="4.98" height="1.18" rx="0.59"/>
  <rect fill="black" x="4.98" y="13.04" width="5.44" height="1.28" rx="0.64"/>
  <rect fill="black" x="10.78" y="13.04" width="1.53" height="1.28" rx="0.64"/>
</svg>
