<svg xmlns="http://www.w3.org/2000/svg" viewBox="0 0 18 18">
  <path fill="black" d="M 5.27 9.30 C 5.35 6.68, 7.36 5.04, 8.63 4.96 C 11.09 4.88, 12.39 6.62, 12.49 9.16 C 10.95 8.96, 7.48 9.02, 5.27 9.30 Z"/>
  <path fill="black" d="M 7.75 4.80 C 7.75 4.42, 8.13 4.16, 8.73 4.16 C 9.35 4.16, 9.71 4.42, 9.71 4.80 V 5.08 H 7.75 Z"/>
  <path fill="black" d="M 7.88 8.98 C 9.08 8.66, 13.12 8.68, 14.20 8.94 C 14.62 9.04, 14.58 9.68, 14.12 9.78 H 7.88 C 7.50 9.78, 7.50 9.12, 7.88 8.98 Z"/>
  <rect fill="black" x="6.08" y="10.92" width="5.51" height="1.18" rx="0.59"/>
  <rect fill="black" x="4.80" y="13.04" width="6.02" height="1.28" rx="0.64"/>
  <rect fill="black" x="11.21" y="13.04" width="1.70" height="1.28" rx="0.64"/>
</svg>
