<svg xmlns="http://www.w3.org/2000/svg" viewBox="0 0 18 18">
  <path fill="black" d="M 5.62 9.30 C 5.70 6.68, 7.58 5.04, 8.77 4.96 C 11.07 4.88, 12.30 6.62, 12.39 9.16 C 10.95 8.96, 7.69 9.02, 5.62 9.30 Z"/>
  <path fill="black" d="M 7.89 4.80 C 7.89 4.42, 8.27 4.16, 8.87 4.16 C 9.49 4.16, 9.85 4.42, 9.85 4.80 V 5.08 H 7.89 Z"/>
  <path fill="black" d="M 8.02 8.98 C 9.22 8.66, 12.79 8.68, 13.87 8.94 C 14.29 9.04, 14.25 9.68, 13.79 9.78 H 8.02 C 7.64 9.78, 7.64 9.12, 8.02 8.98 Z"/>
  <rect fill="black" x="6.22" y="10.92" width="4.88" height="1.18" rx="0.59"/>
  <rect fill="black" x="4.94" y="13.04" width="5.32" height="1.28" rx="0.64"/>
  <rect fill="black" x="10.61" y="13.04" width="1.50" height="1.28" rx="0.64"/>
</svg>
