<svg xmlns="http://www.w3.org/2000/svg" viewBox="0 0 1024 1024">
  <defs>
    <clipPath id="crown-clip">
      <path d="M 248.0 526.0 C 253.0 407.0, 336.0 307.0, 487.0 292.0 C 626.0 279.0, 731.0 371.0, 754.0 515.0 C 644.0 498.0, 416.0 500.0, 248.0 526.0 Z"/>
    </clipPath>
  </defs>
  <g clip-path="url(#crown-clip)">
    <path d="M 519.5 297.6 L 522.6 298.1 L 525.6 298.8 L 528.6 299.5 L 531.6 300.3 L 534.6 301.3 L 537.6 302.3 L 540.6 303.4 L 543.6 304.5 L 546.6 305.8 L 549.5 307.1 L 552.5 308.6 L 555.4 310.1 L 558.3 311.7 L 561.2 313.4 L 564.1 315.2 L 566.9 317.0 L 569.8 319.0 L 572.6 321.0 L 575.3 323.1 L 578.1 325.2 L 580.8 327.5 L 583.5 329.8 L 586.2 332.2 L 588.8 334.7 L 591.4 337.2 L 594.0 339.9 L 596.5 342.6 L 599.0 345.3 L 601.4 348.2 L 603.8 351.0 L 606.2 354.0 L 608.5 357.0 L 610.8 360.1 L 613.0 363.3 L 615.2 366.5 L 617.4 369.7 L 619.5 373.0 L 621.5 376.4 L 623.5 379.8 L 625.4 383.3 L 627.3 386.8 L 629.2 390.4 L 631.0 394.0 L 632.7 397.7 L 634.4 401.4 L 636.0 405.1 L 637.5 408.9 L 639.0 412.7 L 640.5 416.6 L 641.9 420.5 L 643.2 424.4 L 644.5 428.3 L 645.7 432.3 L 646.8 436.3 L 647.9 440.3 L 648.9 444.4 L 649.8 448.4 L 650.7 452.5 L 651.5 456.6 L 652.3 460.7 L 653.0 464.8 L 653.6 468.9 L 654.1 473.0 L 654.6 477.2 L 655.0 481.3 L 655.4 485.4 L 655.7 489.6 L 655.9 493.7 L 656.0 497.8 L 656.1 501.9 L 656.2 506.1 L 663.8 506.0 L 663.8 501.8 L 663.7 497.6 L 663.5 493.3 L 663.2 489.1 L 662.9 484.8 L 662.5 480.6 L 662.0 476.3 L 661.5 472.1 L 660.9 467.8 L 660.2 463.6 L 659.5 459.4 L 658.7 455.2 L 657.8 451.0 L 656.9 446.8 L 655.8 442.6 L 654.8 438.5 L 653.6 434.4 L 652.4 430.3 L 651.2 426.2 L 649.8 422.2 L 648.4 418.2 L 647.0 414.2 L 645.5 410.2 L 643.9 406.3 L 642.3 402.5 L 640.6 398.6 L 638.8 394.8 L 637.0 391.1 L 635.1 387.4 L 633.2 383.7 L 631.2 380.1 L 629.2 376.5 L 627.1 373.0 L 625.0 369.6 L 622.8 366.2 L 620.6 362.9 L 618.3 359.6 L 615.9 356.3 L 613.6 353.2 L 611.1 350.1 L 608.7 347.1 L 606.2 344.1 L 603.6 341.2 L 601.0 338.4 L 598.4 335.6 L 595.7 332.9 L 593.0 330.3 L 590.2 327.8 L 587.5 325.3 L 584.6 322.9 L 581.8 320.6 L 578.9 318.4 L 576.0 316.2 L 573.1 314.2 L 570.1 312.2 L 567.1 310.3 L 564.1 308.5 L 561.1 306.7 L 558.1 305.1 L 555.0 303.5 L 551.9 302.1 L 548.8 300.7 L 545.7 299.4 L 542.6 298.2 L 539.4 297.1 L 536.3 296.1 L 533.1 295.2 L 529.9 294.3 L 526.8 293.6 L 523.6 293.0 L 520.5 292.4 Z" fill="#a3763e" opacity="0.376"/>
    <path d="M 519.5 292.4 L 516.4 293.0 L 513.2 293.6 L 510.1 294.3 L 506.9 295.2 L 503.7 296.1 L 500.6 297.1 L 497.4 298.2 L 494.3 299.4 L 491.2 300.7 L 488.1 302.1 L 485.0 303.5 L 481.9 305.1 L 478.9 306.7 L 475.9 308.5 L 472.9 310.3 L 469.9 312.2 L 466.9 314.2 L 464.0 316.2 L 461.1 318.4 L 458.2 320.6 L 455.4 322.9 L 452.5 325.3 L 449.8 327.8 L 447.0 330.3 L 444.3 332.9 L 441.6 335.6 L 439.0 338.4 L 436.4 341.2 L 433.8 344.1 L 431.3 347.1 L 428.9 350.1 L 426.4 353.2 L 424.1 356.3 L 421.7 359.6 L 419.4 362.9 L 417.2 366.2 L 415.0 369.6 L 412.9 373.0 L 410.8 376.5 L 408.8 380.1 L 406.8 383.7 L 404.9 387.4 L 403.0 391.1 L 401.2 394.8 L 399.4 398.6 L 397.7 402.5 L 396.1 406.3 L 394.5 410.2 L 393.0 414.2 L 391.6 418.2 L 390.2 422.2 L 388.8 426.2 L 387.6 430.3 L 386.4 434.4 L 385.2 438.5 L 384.2 442.6 L 383.1 446.8 L 382.2 451.0 L 381.3 455.2 L 380.5 459.4 L 379.8 463.6 L 379.1 467.8 L 378.5 472.1 L 378.0 476.3 L 377.5 480.6 L 377.1 484.8 L 376.8 489.1 L 376.5 493.3 L 376.3 497.6 L 376.2 501.8 L 376.2 506.0 L 383.8 506.1 L 383.9 501.9 L 384.0 497.8 L 384.1 493.7 L 384.3 489.6 L 384.6 485.4 L 385.0 481.3 L 385.4 477.2 L 385.9 473.0 L 386.4 468.9 L 387.0 464.8 L 387.7 460.7 L 388.5 456.6 L 389.3 452.5 L 390.2 448.4 L 391.1 444.4 L 392.1 440.3 L 393.2 436.3 L 394.3 432.3 L 395.5 428.3 L 396.8 424.4 L 398.1 420.5 L 399.5 416.6 L 401.0 412.7 L 402.5 408.9 L 404.0 405.1 L 405.6 401.4 L 407.3 397.7 L 409.0 394.0 L 410.8 390.4 L 412.7 386.8 L 414.6 383.3 L 416.5 379.8 L 418.5 376.4 L 420.5 373.0 L 422.6 369.7 L 424.8 366.5 L 427.0 363.3 L 429.2 360.1 L 431.5 357.0 L 433.8 354.0 L 436.2 351.0 L 438.6 348.2 L 441.0 345.3 L 443.5 342.6 L 446.0 339.9 L 448.6 337.2 L 451.2 334.7 L 453.8 332.2 L 456.5 329.8 L 459.2 327.5 L 461.9 325.2 L 464.7 323.1 L 467.4 321.0 L 470.2 319.0 L 473.1 317.0 L 475.9 315.2 L 478.8 313.4 L 481.7 311.7 L 484.6 310.1 L 487.5 308.6 L 490.5 307.1 L 493.4 305.8 L 496.4 304.5 L 499.4 303.4 L 502.4 302.3 L 505.4 301.3 L 508.4 300.3 L 511.4 299.5 L 514.4 298.8 L 517.4 298.1 L 520.5 297.6 Z" fill="#a3763e" opacity="0.376"/>
  </g>
</svg>
