<svg xmlns="http://www.w3.org/2000/svg" viewBox="0 0 1024 1024">
<defs><filter id="soft-shadow" x="-20%" y="-20%" width="140%" height="150%"><feDropShadow dx="0" dy="14" stdDeviation="12" flood-color="#000000" flood-opacity="0.22"/></filter></defs>
<g filter="url(#soft-shadow)">
  <path d="M 375.9 626.0 H 648.1 C 659.6 626.0, 671.1 637.5, 671.1 649.0 V 651.0 C 671.1 662.5, 659.6 674.0, 648.1 674.0 H 375.9 C 364.4 674.0, 352.9 662.5, 352.9 651.0 V 649.0 C 352.9 637.5, 364.4 626.0, 375.9 626.0 Z" fill="#fff3de" opacity="1.000"/>
  <path d="M 309.3 716.0 H 604.1 C 616.1 716.0, 628.1 728.0, 628.1 740.0 V 742.0 C 628.1 754.0, 616.1 766.0, 604.1 766.0 H 309.3 C 297.3 766.0, 285.3 754.0, 285.3 742.0 V 740.0 C 285.3 728.0, 297.3 716.0, 309.3 716.0 Z" fill="#fff3de" opacity="1.000"/>
  <path d="M 677.0 716.0 H 714.7 C 726.7 716.0, 738.7 728.0, 738.7 740.0 V 742.0 C 738.7 754.0, 726.7 766.0, 714.7 766.0 H 677.0 C 665.0 766.0, 653.0 754.0, 653.0 742.0 V 740.0 C 653.0 728.0, 665.0 716.0, 677.0 716.0 Z" fill="#fff3de" opacity="1.000"/>
</g>
</svg>
