<svg xmlns="http://www.w3.org/2000/svg" viewBox="0 0 1024 1024">
  <defs>
    <clipPath id="crown-clip">
      <path d="M 258.3 538.0 C 263.1 419.0, 342.8 319.0, 487.7 304.0 C 621.2 291.0, 722.0 383.0, 744.0 527.0 C 638.4 510.0, 419.6 512.0, 258.3 538.0 Z"/>
    </clipPath>
  </defs>
  <g clip-path="url(#crown-clip)">
    <path d="M 519.5 309.6 L 522.5 310.1 L 525.3 310.8 L 528.2 311.5 L 531.1 312.3 L 534.0 313.2 L 536.9 314.2 L 539.7 315.3 L 542.6 316.5 L 545.4 317.8 L 548.3 319.1 L 551.1 320.6 L 553.9 322.1 L 556.7 323.7 L 559.5 325.4 L 562.2 327.1 L 564.9 329.0 L 567.7 330.9 L 570.3 332.9 L 573.0 335.0 L 575.6 337.2 L 578.3 339.5 L 580.8 341.8 L 583.4 344.2 L 585.9 346.7 L 588.4 349.2 L 590.9 351.8 L 593.3 354.5 L 595.7 357.3 L 598.0 360.1 L 600.3 363.0 L 602.6 366.0 L 604.8 369.0 L 607.0 372.1 L 609.2 375.2 L 611.3 378.4 L 613.3 381.7 L 615.3 385.0 L 617.3 388.4 L 619.2 391.8 L 621.1 395.3 L 622.9 398.8 L 624.7 402.4 L 626.4 406.0 L 628.0 409.6 L 629.6 413.3 L 631.2 417.1 L 632.7 420.9 L 634.1 424.7 L 635.5 428.5 L 636.9 432.4 L 638.1 436.4 L 639.3 440.3 L 640.5 444.3 L 641.6 448.3 L 642.6 452.3 L 643.6 456.3 L 644.5 460.4 L 645.3 464.5 L 646.1 468.6 L 646.8 472.7 L 647.5 476.8 L 648.1 480.9 L 648.6 485.0 L 649.1 489.2 L 649.5 493.3 L 649.8 497.4 L 650.1 501.6 L 650.3 505.7 L 650.5 509.8 L 650.5 513.9 L 650.6 518.1 L 658.2 518.0 L 658.2 513.8 L 658.1 509.6 L 657.9 505.3 L 657.6 501.1 L 657.3 496.8 L 656.9 492.6 L 656.5 488.3 L 656.0 484.1 L 655.4 479.9 L 654.8 475.6 L 654.0 471.4 L 653.3 467.2 L 652.4 463.0 L 651.5 458.8 L 650.6 454.7 L 649.5 450.5 L 648.4 446.4 L 647.3 442.3 L 646.1 438.3 L 644.8 434.2 L 643.5 430.2 L 642.1 426.2 L 640.6 422.3 L 639.1 418.4 L 637.5 414.5 L 635.9 410.7 L 634.2 406.9 L 632.5 403.1 L 630.7 399.4 L 628.8 395.8 L 626.9 392.2 L 625.0 388.6 L 623.0 385.1 L 620.9 381.6 L 618.8 378.2 L 616.7 374.9 L 614.5 371.6 L 612.2 368.4 L 610.0 365.2 L 607.6 362.1 L 605.3 359.1 L 602.8 356.1 L 600.4 353.2 L 597.9 350.4 L 595.4 347.6 L 592.8 345.0 L 590.2 342.3 L 587.6 339.8 L 584.9 337.3 L 582.2 335.0 L 579.4 332.6 L 576.7 330.4 L 573.9 328.3 L 571.1 326.2 L 568.2 324.2 L 565.4 322.3 L 562.5 320.5 L 559.6 318.8 L 556.6 317.1 L 553.7 315.6 L 550.7 314.1 L 547.7 312.7 L 544.7 311.4 L 541.7 310.2 L 538.7 309.1 L 535.7 308.1 L 532.6 307.2 L 529.6 306.4 L 526.5 305.6 L 523.5 305.0 L 520.5 304.4 Z" fill="#8698a6" opacity="0.430"/>
    <path d="M 519.5 304.4 L 516.5 305.0 L 513.5 305.6 L 510.4 306.4 L 507.4 307.2 L 504.3 308.1 L 501.3 309.1 L 498.3 310.2 L 495.3 311.4 L 492.3 312.7 L 489.3 314.1 L 486.3 315.6 L 483.4 317.1 L 480.4 318.8 L 477.5 320.5 L 474.6 322.3 L 471.8 324.2 L 468.9 326.2 L 466.1 328.3 L 463.3 330.4 L 460.6 332.6 L 457.8 335.0 L 455.1 337.3 L 452.4 339.8 L 449.8 342.3 L 447.2 345.0 L 444.6 347.6 L 442.1 350.4 L 439.6 353.2 L 437.2 356.1 L 434.7 359.1 L 432.4 362.1 L 430.0 365.2 L 427.8 368.4 L 425.5 371.6 L 423.3 374.9 L 421.2 378.2 L 419.1 381.6 L 417.0 385.1 L 415.0 388.6 L 413.1 392.2 L 411.2 395.8 L 409.3 399.4 L 407.5 403.1 L 405.8 406.9 L 404.1 410.7 L 402.5 414.5 L 400.9 418.4 L 399.4 422.3 L 397.9 426.2 L 396.5 430.2 L 395.2 434.2 L 393.9 438.3 L 392.7 442.3 L 391.6 446.4 L 390.5 450.5 L 389.4 454.7 L 388.5 458.8 L 387.6 463.0 L 386.7 467.2 L 386.0 471.4 L 385.2 475.6 L 384.6 479.9 L 384.0 484.1 L 383.5 488.3 L 383.1 492.6 L 382.7 496.8 L 382.4 501.1 L 382.1 505.3 L 381.9 509.6 L 381.8 513.8 L 381.8 518.0 L 389.4 518.1 L 389.5 513.9 L 389.5 509.8 L 389.7 505.7 L 389.9 501.6 L 390.2 497.4 L 390.5 493.3 L 390.9 489.2 L 391.4 485.0 L 391.9 480.9 L 392.5 476.8 L 393.2 472.7 L 393.9 468.6 L 394.7 464.5 L 395.5 460.4 L 396.4 456.3 L 397.4 452.3 L 398.4 448.3 L 399.5 444.3 L 400.7 440.3 L 401.9 436.4 L 403.1 432.4 L 404.5 428.5 L 405.9 424.7 L 407.3 420.9 L 408.8 417.1 L 410.4 413.3 L 412.0 409.6 L 413.6 406.0 L 415.3 402.4 L 417.1 398.8 L 418.9 395.3 L 420.8 391.8 L 422.7 388.4 L 424.7 385.0 L 426.7 381.7 L 428.7 378.4 L 430.8 375.2 L 433.0 372.1 L 435.2 369.0 L 437.4 366.0 L 439.7 363.0 L 442.0 360.1 L 444.3 357.3 L 446.7 354.5 L 449.1 351.8 L 451.6 349.2 L 454.1 346.7 L 456.6 344.2 L 459.2 341.8 L 461.7 339.5 L 464.4 337.2 L 467.0 335.0 L 469.7 332.9 L 472.3 330.9 L 475.1 329.0 L 477.8 327.1 L 480.5 325.4 L 483.3 323.7 L 486.1 322.1 L 488.9 320.6 L 491.7 319.1 L 494.6 317.8 L 497.4 316.5 L 500.3 315.3 L 503.1 314.2 L 506.0 313.2 L 508.9 312.3 L 511.8 311.5 L 514.7 310.8 L 517.5 310.1 L 520.5 309.6 Z" fill="#8698a6" opacity="0.430"/>
  </g>
</svg>
