<svg xmlns="http://www.w3.org/2000/svg" viewBox="0 0 18 18">
  <path fill="black" d="M 5.25 9.30 C 5.33 6.68, 7.43 5.04, 8.75 4.96 C 11.31 4.88, 12.67 6.62, 12.77 9.16 C 11.17 8.96, 7.55 9.02, 5.25 9.30 Z"/>
  <path fill="black" d="M 7.87 4.80 C 7.87 4.42, 8.25 4.16, 8.85 4.16 C 9.47 4.16, 9.83 4.42, 9.83 4.80 V 5.08 H 7.87 Z"/>
  <path fill="black" d="M 8.00 8.98 C 9.20 8.66, 12.77 8.68, 13.85 8.94 C 14.27 9.04, 14.23 9.68, 13.77 9.78 H 8.00 C 7.62 9.78, 7.62 9.12, 8.00 8.98 Z"/>
  <rect fill="black" x="6.20" y="10.92" width="5.30" height="1.18" rx="0.59"/>
  <rect fill="black" x="4.92" y="13.04" width="5.79" height="1.28" rx="0.64"/>
  <rect fill="black" x="11.09" y="13.04" width="1.63" height="1.28" rx="0.64"/>
</svg>
