<svg xmlns="http://www.w3.org/2000/svg" viewBox="0 0 1024 1024">
  <defs>
    <clipPath id="crown-clip">
      <path d="M 263.4 534.0 C 268.1 415.0, 346.1 315.0, 488.1 300.0 C 618.7 287.0, 717.4 379.0, 739.1 523.0 C 635.7 506.0, 421.3 508.0, 263.4 534.0 Z"/>
    </clipPath>
  </defs>
  <g clip-path="url(#crown-clip)">
    <path d="M 519.5 305.6 L 522.4 306.1 L 525.2 306.8 L 528.0 307.5 L 530.9 308.3 L 533.7 309.2 L 536.5 310.2 L 539.3 311.3 L 542.1 312.5 L 544.9 313.8 L 547.6 315.1 L 550.4 316.5 L 553.1 318.1 L 555.9 319.7 L 558.6 321.4 L 561.3 323.1 L 564.0 325.0 L 566.6 326.9 L 569.2 328.9 L 571.8 331.0 L 574.4 333.2 L 577.0 335.4 L 579.5 337.8 L 582.0 340.2 L 584.5 342.6 L 586.9 345.2 L 589.3 347.8 L 591.7 350.5 L 594.0 353.3 L 596.3 356.1 L 598.6 359.0 L 600.8 361.9 L 603.0 365.0 L 605.1 368.0 L 607.2 371.2 L 609.3 374.4 L 611.3 377.7 L 613.3 381.0 L 615.2 384.3 L 617.1 387.8 L 618.9 391.2 L 620.7 394.8 L 622.4 398.3 L 624.1 402.0 L 625.7 405.6 L 627.3 409.3 L 628.8 413.1 L 630.3 416.9 L 631.7 420.7 L 633.0 424.5 L 634.3 428.4 L 635.6 432.3 L 636.8 436.3 L 637.9 440.3 L 639.0 444.2 L 640.0 448.3 L 640.9 452.3 L 641.8 456.4 L 642.6 460.4 L 643.4 464.5 L 644.1 468.6 L 644.8 472.8 L 645.3 476.9 L 645.9 481.0 L 646.3 485.2 L 646.7 489.3 L 647.0 493.4 L 647.3 497.6 L 647.5 501.7 L 647.7 505.8 L 647.7 509.9 L 647.8 514.1 L 655.4 514.0 L 655.4 509.8 L 655.3 505.6 L 655.1 501.3 L 654.9 497.1 L 654.5 492.9 L 654.2 488.6 L 653.7 484.4 L 653.2 480.1 L 652.7 475.9 L 652.0 471.6 L 651.3 467.4 L 650.6 463.2 L 649.7 459.0 L 648.9 454.9 L 647.9 450.7 L 646.9 446.6 L 645.8 442.4 L 644.7 438.3 L 643.5 434.3 L 642.3 430.2 L 641.0 426.2 L 639.6 422.2 L 638.2 418.3 L 636.7 414.4 L 635.1 410.5 L 633.6 406.7 L 631.9 402.9 L 630.2 399.2 L 628.4 395.4 L 626.6 391.8 L 624.8 388.2 L 622.9 384.6 L 620.9 381.1 L 618.9 377.7 L 616.8 374.3 L 614.7 370.9 L 612.6 367.6 L 610.4 364.4 L 608.2 361.3 L 605.9 358.2 L 603.6 355.1 L 601.2 352.2 L 598.8 349.3 L 596.3 346.4 L 593.9 343.7 L 591.3 341.0 L 588.8 338.4 L 586.2 335.8 L 583.6 333.4 L 580.9 331.0 L 578.3 328.7 L 575.6 326.4 L 572.8 324.3 L 570.1 322.2 L 567.3 320.2 L 564.5 318.3 L 561.6 316.5 L 558.8 314.8 L 555.9 313.1 L 553.0 311.6 L 550.1 310.1 L 547.2 308.7 L 544.3 307.4 L 541.3 306.2 L 538.4 305.1 L 535.4 304.1 L 532.4 303.2 L 529.4 302.4 L 526.4 301.6 L 523.4 301.0 L 520.5 300.4 Z" fill="#8698a6" opacity="0.430"/>
    <path d="M 519.5 300.4 L 516.6 301.0 L 513.6 301.6 L 510.6 302.4 L 507.6 303.2 L 504.6 304.1 L 501.6 305.1 L 498.7 306.2 L 495.7 307.4 L 492.8 308.7 L 489.9 310.1 L 487.0 311.6 L 484.1 313.1 L 481.2 314.8 L 478.4 316.5 L 475.5 318.3 L 472.7 320.2 L 469.9 322.2 L 467.2 324.3 L 464.4 326.4 L 461.7 328.7 L 459.1 331.0 L 456.4 333.4 L 453.8 335.8 L 451.2 338.4 L 448.7 341.0 L 446.1 343.7 L 443.7 346.4 L 441.2 349.3 L 438.8 352.2 L 436.4 355.1 L 434.1 358.2 L 431.8 361.3 L 429.6 364.4 L 427.4 367.6 L 425.3 370.9 L 423.2 374.3 L 421.1 377.7 L 419.1 381.1 L 417.1 384.6 L 415.2 388.2 L 413.4 391.8 L 411.6 395.4 L 409.8 399.2 L 408.1 402.9 L 406.4 406.7 L 404.9 410.5 L 403.3 414.4 L 401.8 418.3 L 400.4 422.2 L 399.0 426.2 L 397.7 430.2 L 396.5 434.3 L 395.3 438.3 L 394.2 442.4 L 393.1 446.6 L 392.1 450.7 L 391.1 454.9 L 390.3 459.0 L 389.4 463.2 L 388.7 467.4 L 388.0 471.6 L 387.3 475.9 L 386.8 480.1 L 386.3 484.4 L 385.8 488.6 L 385.5 492.9 L 385.1 497.1 L 384.9 501.3 L 384.7 505.6 L 384.6 509.8 L 384.6 514.0 L 392.2 514.1 L 392.3 509.9 L 392.3 505.8 L 392.5 501.7 L 392.7 497.6 L 393.0 493.4 L 393.3 489.3 L 393.7 485.2 L 394.1 481.0 L 394.7 476.9 L 395.2 472.8 L 395.9 468.6 L 396.6 464.5 L 397.4 460.4 L 398.2 456.4 L 399.1 452.3 L 400.0 448.3 L 401.0 444.2 L 402.1 440.3 L 403.2 436.3 L 404.4 432.3 L 405.7 428.4 L 407.0 424.5 L 408.3 420.7 L 409.7 416.9 L 411.2 413.1 L 412.7 409.3 L 414.3 405.6 L 415.9 402.0 L 417.6 398.3 L 419.3 394.8 L 421.1 391.2 L 422.9 387.8 L 424.8 384.3 L 426.7 381.0 L 428.7 377.7 L 430.7 374.4 L 432.8 371.2 L 434.9 368.0 L 437.0 365.0 L 439.2 361.9 L 441.4 359.0 L 443.7 356.1 L 446.0 353.3 L 448.3 350.5 L 450.7 347.8 L 453.1 345.2 L 455.5 342.6 L 458.0 340.2 L 460.5 337.8 L 463.0 335.4 L 465.6 333.2 L 468.2 331.0 L 470.8 328.9 L 473.4 326.9 L 476.0 325.0 L 478.7 323.1 L 481.4 321.4 L 484.1 319.7 L 486.9 318.1 L 489.6 316.5 L 492.4 315.1 L 495.1 313.8 L 497.9 312.5 L 500.7 311.3 L 503.5 310.2 L 506.3 309.2 L 509.1 308.3 L 512.0 307.5 L 514.8 306.8 L 517.6 306.1 L 520.5 305.6 Z" fill="#8698a6" opacity="0.430"/>
  </g>
</svg>
