<svg xmlns="http://www.w3.org/2000/svg" viewBox="0 0 1024 1024">
<defs><filter id="soft-shadow" x="-20%" y="-20%" width="140%" height="150%"><feDropShadow dx="0" dy="14" stdDeviation="12" flood-color="#000000" flood-opacity="0.22"/></filter></defs>
<g filter="url(#soft-shadow)">
  <path d="M 382.0 626.0 H 642.0 C 653.5 626.0, 665.0 637.5, 665.0 649.0 V 651.0 C 665.0 662.5, 653.5 674.0, 642.0 674.0 H 382.0 C 370.5 674.0, 359.0 662.5, 359.0 651.0 V 649.0 C 359.0 637.5, 370.5 626.0, 382.0 626.0 Z" fill="#fff6e6" opacity="1.000"/>
  <path d="M 318.0 716.0 H 599.6 C 611.6 716.0, 623.6 728.0, 623.6 740.0 V 742.0 C 623.6 754.0, 611.6 766.0, 599.6 766.0 H 318.0 C 306.0 766.0, 294.0 754.0, 294.0 742.0 V 740.0 C 294.0 728.0, 306.0 716.0, 318.0 716.0 Z" fill="#fff6e6" opacity="1.000"/>
  <path d="M 671.6 716.0 H 706.0 C 718.0 716.0, 730.0 728.0, 730.0 740.0 V 742.0 C 730.0 754.0, 718.0 766.0, 706.0 766.0 H 671.6 C 659.6 766.0, 647.6 754.0, 647.6 742.0 V 740.0 C 647.6 728.0, 659.6 716.0, 671.6 716.0 Z" fill="#fff6e6" opacity="1.000"/>
</g>
</svg>
