<svg xmlns="http://www.w3.org/2000/svg" viewBox="0 0 1024 1024">
<defs><filter id="soft-shadow" x="-20%" y="-20%" width="140%" height="150%"><feDropShadow dx="0" dy="14" stdDeviation="12" flood-color="#000000" flood-opacity="0.22"/></filter></defs>
<g filter="url(#soft-shadow)">
  <path d="M 388.1 626.0 H 635.9 C 647.4 626.0, 658.9 637.5, 658.9 649.0 V 651.0 C 658.9 662.5, 647.4 674.0, 635.9 674.0 H 388.1 C 376.6 674.0, 365.1 662.5, 365.1 651.0 V 649.0 C 365.1 637.5, 376.6 626.0, 388.1 626.0 Z" fill="#fff8e8" opacity="1.000"/>
  <path d="M 326.7 716.0 H 595.1 C 607.1 716.0, 619.1 728.0, 619.1 740.0 V 742.0 C 619.1 754.0, 607.1 766.0, 595.1 766.0 H 326.7 C 314.7 766.0, 302.7 754.0, 302.7 742.0 V 740.0 C 302.7 728.0, 314.7 716.0, 326.7 716.0 Z" fill="#fff8e8" opacity="1.000"/>
  <path d="M 666.2 716.0 H 697.3 C 709.3 716.0, 721.3 728.0, 721.3 740.0 V 742.0 C 721.3 754.0, 709.3 766.0, 697.3 766.0 H 666.2 C 654.2 766.0, 642.2 754.0, 642.2 742.0 V 740.0 C 642.2 728.0, 654.2 716.0, 666.2 716.0 Z" fill="#fff8e8" opacity="1.000"/>
</g>
</svg>
